{
	"asset":{
		"generator":"Khronos glTF Blender I/O v4.2.60",
		"version":"2.0"
	},
	"scene":0,
	"scenes":[
		{
			"name":"Scene",
			"nodes":[
				2,
				5,
				8,
				10,
				13,
				14
			]
		}
	],
	"nodes":[
		{
			"name":"Object_5"
		},
		{
			"children":[
				0
			],
			"name":"Object_4",
			"rotation":[
				0.70710688829422,
				0,
				0,
				0.7071066498756409
			]
		},
		{
			"children":[
				1
			],
			"name":"Point",
			"rotation":[
				-0.41888368129730225,
				-0.10383239388465881,
				-0.10973615199327469,
				0.8953844308853149
			],
			"scale":[
				100,
				99.99999237060547,
				100.00000762939453
			],
			"translation":[
				-138.791748046875,
				529.991943359375,
				-850.0241088867188
			]
		},
		{
			"name":"Object_8"
		},
		{
			"children":[
				3
			],
			"name":"Object_7",
			"rotation":[
				0.7071068286895752,
				0,
				0,
				0.7071067094802856
			]
		},
		{
			"children":[
				4
			],
			"name":"Point.001",
			"rotation":[
				0.4407447278499603,
				-0.1872023493051529,
				0.11800827831029892,
				0.8699272274971008
			],
			"scale":[
				99.99999237060547,
				100,
				100
			],
			"translation":[
				300.03729248046875,
				138.2272491455078,
				658.5792236328125
			]
		},
		{
			"name":"Object_11"
		},
		{
			"children":[
				6
			],
			"name":"Object_10",
			"rotation":[
				0.70710688829422,
				0,
				0,
				0.7071066498756409
			]
		},
		{
			"children":[
				7
			],
			"name":"Point.002",
			"rotation":[
				0.41471055150032043,
				-0.19364601373672485,
				0.19401192665100098,
				0.8676841259002686
			],
			"scale":[
				100.00000762939453,
				100,
				100
			],
			"translation":[
				-721.41259765625,
				315.3841247558594,
				125.74250793457031
			]
		},
		{
			"name":"Object_13"
		},
		{
			"children":[
				9
			],
			"name":"Camera.001",
			"rotation":[
				0.005183122120797634,
				0.9276917576789856,
				0.002086350694298744,
				0.3733052611351013
			],
			"scale":[
				99.99999237060547,
				100.00000762939453,
				99.99999237060547
			],
			"translation":[
				581.1201782226562,
				-35.90859603881836,
				458.202880859375
			]
		},
		{
			"name":"Object_27"
		},
		{
			"children":[
				11
			],
			"name":"Object_26",
			"rotation":[
				0.70710688829422,
				0,
				0,
				0.7071066498756409
			]
		},
		{
			"children":[
				12
			],
			"name":"Point.003",
			"rotation":[
				-0.33589279651641846,
				0.11990194767713547,
				0.37987130880355835,
				0.8535205721855164
			],
			"scale":[
				100.0000228881836,
				100.00001525878906,
				100.00000762939453
			],
			"translation":[
				-1408.06005859375,
				529.991943359375,
				-850.0241088867188
			]
		},
		{
			"mesh":0,
			"name":"Cube.001"
		}
	],
	"materials":[
		{
			"name":"Default OBJ",
			"normalTexture":{
				"index":0
			},
			"pbrMetallicRoughness":{
				"baseColorTexture":{
					"index":1
				},
				"metallicFactor":0.25,
				"roughnessFactor":0.8999999761581421
			}
		}
	],
	"meshes":[
		{
			"name":"Cube.002",
			"primitives":[
				{
					"attributes":{
						"POSITION":0,
						"NORMAL":1,
						"TEXCOORD_0":2
					},
					"indices":3,
					"material":0
				}
			]
		}
	],
	"textures":[
		{
			"sampler":0,
			"source":0
		},
		{
			"sampler":1,
			"source":1
		}
	],
	"images":[
		{
			"mimeType":"image/png",
			"name":"earth_norm",
			"uri":"Textures/earth_norm.png"
		},
		{
			"mimeType":"image/png",
			"name":"earth_diff",
			"uri":"Textures/earth_diff.png"
		}
	],
	"accessors":[
		{
			"bufferView":0,
			"componentType":5126,
			"count":1778,
			"max":[
				500,
				498.32342529296875,
				500
			],
			"min":[
				-499.9999694824219,
				-498.3235168457031,
				-500
			],
			"type":"VEC3"
		},
		{
			"bufferView":1,
			"componentType":5126,
			"count":1778,
			"type":"VEC3"
		},
		{
			"bufferView":2,
			"componentType":5126,
			"count":1778,
			"type":"VEC2"
		},
		{
			"bufferView":3,
			"componentType":5123,
			"count":9216,
			"type":"SCALAR"
		}
	],
	"bufferViews":[
		{
			"buffer":0,
			"byteLength":21336,
			"byteOffset":0,
			"target":34962
		},
		{
			"buffer":0,
			"byteLength":21336,
			"byteOffset":21336,
			"target":34962
		},
		{
			"buffer":0,
			"byteLength":14224,
			"byteOffset":42672,
			"target":34962
		},
		{
			"buffer":0,
			"byteLength":18432,
			"byteOffset":56896,
			"target":34963
		}
	],
	"samplers":[
		{
			"magFilter":9729,
			"minFilter":9987
		},
		{
			"magFilter":9729,
			"minFilter":9987,
			"wrapS":33071,
			"wrapT":33071
		}
	],
	"buffers":[
		{
			"byteLength":75328,
			"uri":"untitled.bin"
		}
	]
}
